<mxfile host="app.diagrams.net" agent="Mozilla/5.0 (Windows NT 10.0; Win64; x64) AppleWebKit/537.36 (KHTML, like Gecko) Chrome/131.0.0.0 Safari/537.36 Edg/131.0.0.0" version="26.0.2">
  <diagram name="Page-1" id="IcFHYbzeTBYGP-GxcvZ1">
    <mxGraphModel dx="1426" dy="791" grid="1" gridSize="10" guides="1" tooltips="1" connect="1" arrows="1" fold="1" page="1" pageScale="1" pageWidth="1700" pageHeight="1100" math="0" shadow="0">
      <root>
        <mxCell id="0" />
        <mxCell id="1" parent="0" />
        <mxCell id="B-G9WYWBnHyq6kwY-6rm-3" style="edgeStyle=orthogonalEdgeStyle;rounded=0;orthogonalLoop=1;jettySize=auto;html=1;exitX=0.5;exitY=1;exitDx=0;exitDy=0;" edge="1" parent="1" source="B-G9WYWBnHyq6kwY-6rm-1" target="B-G9WYWBnHyq6kwY-6rm-2">
          <mxGeometry relative="1" as="geometry" />
        </mxCell>
        <mxCell id="B-G9WYWBnHyq6kwY-6rm-1" value="Start" style="rounded=1;whiteSpace=wrap;html=1;" vertex="1" parent="1">
          <mxGeometry x="530" y="40" width="120" height="60" as="geometry" />
        </mxCell>
        <mxCell id="B-G9WYWBnHyq6kwY-6rm-5" value="" style="edgeStyle=orthogonalEdgeStyle;rounded=0;orthogonalLoop=1;jettySize=auto;html=1;" edge="1" parent="1" source="B-G9WYWBnHyq6kwY-6rm-2" target="B-G9WYWBnHyq6kwY-6rm-4">
          <mxGeometry relative="1" as="geometry" />
        </mxCell>
        <UserObject label="Get Customer ID" link="https://viewer.diagrams.net/?tags=%7B%7D&amp;lightbox=1&amp;highlight=0000ff&amp;edit=_blank&amp;layers=1&amp;nav=1&amp;title=Get_Customer_Info.drawio#Uhttps%3A%2F%2Fraw.githubusercontent.com%2Feme-invera%2FCustomer_Maintenance%2Fmain%2FGet_Customer_Info.drawio" id="B-G9WYWBnHyq6kwY-6rm-2">
          <mxCell style="ellipse;shape=cloud;whiteSpace=wrap;html=1;" vertex="1" parent="1">
            <mxGeometry x="495" y="200" width="190" height="80" as="geometry" />
          </mxCell>
        </UserObject>
        <UserObject label="Get Customer by &lt;br&gt;Credit Control" link="https://viewer.diagrams.net/?tags=%7B%7D&amp;lightbox=1&amp;highlight=0000ff&amp;edit=_blank&amp;layers=1&amp;nav=1&amp;title=Get_Customer_Id_by_Credit_Ctl.drawio#Uhttps%3A%2F%2Fraw.githubusercontent.com%2Feme-invera%2FCustomer_Maintenance%2Fmain%2FGet_Customer_Id_by_Credit_Ctl.drawio" id="B-G9WYWBnHyq6kwY-6rm-4">
          <mxCell style="ellipse;shape=cloud;whiteSpace=wrap;html=1;" vertex="1" parent="1">
            <mxGeometry x="477.5" y="350" width="225" height="120" as="geometry" />
          </mxCell>
        </UserObject>
      </root>
    </mxGraphModel>
  </diagram>
</mxfile>
